<?xml version="1.0" encoding="UTF-8" standalone="no"?>
<!-- Created with Inkscape (http://www.inkscape.org/) -->

<svg
   width="512"
   height="512"
   viewBox="0 0 135.46666 135.46667"
   version="1.1"
   id="svg1"
   inkscape:version="1.3 (0e150ed6c4, 2023-07-21)"
   sodipodi:docname="ikona.svg"
   xml:space="preserve"
   inkscape:export-filename="ikona_512.png"
   inkscape:export-xdpi="96"
   inkscape:export-ydpi="96"
   xmlns:inkscape="http://www.inkscape.org/namespaces/inkscape"
   xmlns:sodipodi="http://sodipodi.sourceforge.net/DTD/sodipodi-0.dtd"
   xmlns="http://www.w3.org/2000/svg"
   xmlns:svg="http://www.w3.org/2000/svg"><sodipodi:namedview
     id="namedview1"
     pagecolor="#505050"
     bordercolor="#eeeeee"
     borderopacity="1"
     inkscape:showpageshadow="0"
     inkscape:pageopacity="0"
     inkscape:pagecheckerboard="0"
     inkscape:deskcolor="#505050"
     inkscape:document-units="mm"
     showguides="false"
     inkscape:zoom="1.4485269"
     inkscape:cx="202.96482"
     inkscape:cy="244.04103"
     inkscape:window-width="1920"
     inkscape:window-height="1009"
     inkscape:window-x="-8"
     inkscape:window-y="-8"
     inkscape:window-maximized="1"
     inkscape:current-layer="layer1" /><defs
     id="defs1" /><g
     inkscape:label="Warstwa 1"
     inkscape:groupmode="layer"
     id="layer1"><circle
       style="fill:#ffc107;stroke-width:0.264999;fill-opacity:1"
       id="path1"
       cx="67.73333"
       cy="67.73333"
       r="67.73333" /><g
       id="g3"
       transform="matrix(1.25,0,0,1.2386385,-16.933334,-16.129332)"><rect
         style="fill:#f5f7f8;fill-opacity:1;stroke-width:0.249033"
         id="rect1"
         width="67.73333"
         height="47.625"
         x="33.866665"
         y="56.180305"
         ry="4.0015545" /><path
         sodipodi:type="star"
         style="fill:#45474b;fill-opacity:1;stroke-width:0.264999"
         id="path2"
         inkscape:flatsided="true"
         sodipodi:sides="3"
         sodipodi:cx="36.896683"
         sodipodi:cy="12.420665"
         sodipodi:r1="17.259153"
         sodipodi:r2="8.3108854"
         sodipodi:arg1="-1.5669577"
         sodipodi:arg2="-0.51976019"
         inkscape:rounded="0"
         inkscape:randomized="0"
         d="M 36.962934,-4.8383614 51.810312,21.107553 21.916802,20.992803 Z"
         inkscape:transform-center-y="-4.8731386"
         transform="matrix(2.6552586,0,0,1.1727119,-30.148943,34.716442)"
         inkscape:transform-center-x="2.7403736e-06" /><rect
         style="fill:#45474b;fill-opacity:1;stroke-width:0.264999"
         id="rect3"
         width="8.0369005"
         height="14.612546"
         x="80.003693"
         y="33.791512"
         ry="0.7306273" /></g><g
       style="fill:none"
       id="g4"
       transform="matrix(1.9242423,0,0,1.9242424,45.271253,56.835582)"><path
         fill="#000000"
         fill-rule="evenodd"
         d="m 0.67320563,13.644122 c 0,-6.0750002 4.92499997,-11.0000002 11.00000037,-11.0000002 6.075,0 11,4.925 11,11.0000002 0,6.075 -4.925,11 -11,11 -6.0750004,0 -11.00000037,-4.925 -11.00000037,-11 z M 12.673206,7.6441218 a 1,1 0 1 0 -2,0 v 0.9999999 a 3.0000002,3.0000002 0 0 0 0,6.0000003 h 2 a 1,1 0 1 1 0,2 H 8.6732056 a 1,1 0 1 0 0,2 h 2.0000004 v 1 a 1,1 0 1 0 2,0 v -1 a 3,3 0 1 0 0,-6 h -2 a 1,1 0 1 1 0,-2 h 4 a 1.0000001,1.0000001 0 1 0 0,-2.0000003 h -2 z"
         clip-rule="evenodd"
         id="path1-9"
         inkscape:label="path1-9"
         style="fill:#748e63;fill-opacity:1" /></g></g></svg>
